<?xml version="1.0" encoding="UTF-8"?>
<svg version="1.1" xmlns="http://www.w3.org/2000/svg" width="599" height="460">
<path d="M0 0 C197.67 0 395.34 0 599 0 C599 151.8 599 303.6 599 460 C401.33 460 203.66 460 0 460 C0 308.2 0 156.4 0 0 Z " fill="#030A02" transform="translate(0,0)"/>
<path d="M0 0 C13.95667749 -0.3261541 27.68748926 0.63340084 41.56591797 2.06640625 C40.56591797 5.06640625 40.56591797 5.06640625 38.03857422 6.43359375 C36.91322266 6.93117188 35.78787109 7.42875 34.62841797 7.94140625 C3.37395366 22.65827457 -26.67205059 53.27211564 -39.75048828 85.2890625 C-40.40996546 87.13608529 -41.0458637 88.99191265 -41.64501953 90.859375 C-42.43408203 93.06640625 -42.43408203 93.06640625 -44.43408203 96.06640625 C-45.15501122 98.12620394 -45.86559902 100.19011959 -46.52783203 102.26953125 C-47.16245878 104.22812071 -47.83222243 106.17551164 -48.52783203 108.11328125 C-57.47063806 133.45123167 -60.63214147 158.3702271 -61.43408203 185.06640625 C-54.50408203 185.06640625 -47.57408203 185.06640625 -40.43408203 185.06640625 C-40.02158203 187.87140625 -39.60908203 190.67640625 -39.18408203 193.56640625 C-37.23828892 206.15587259 -34.65406888 218.38149844 -29.43408203 230.06640625 C-27.67930183 234.16089339 -25.92845526 238.25389086 -24.24658203 242.37890625 C-23.90240234 243.22066406 -23.55822266 244.06242188 -23.20361328 244.9296875 C-22.43408203 247.06640625 -22.43408203 247.06640625 -22.43408203 249.06640625 C-21.77408203 249.06640625 -21.11408203 249.06640625 -20.43408203 249.06640625 C-20.14017578 249.73542969 -19.84626953 250.40445313 -19.54345703 251.09375 C-13.70909055 263.58398859 -5.60971256 275.26209404 3.94482422 285.20703125 C5.56591797 287.06640625 5.56591797 287.06640625 7.07373047 289.58203125 C10.64909884 295.5347388 17.6211373 302.52697965 24.12841797 305.06640625 C26.56591797 306.06640625 26.56591797 306.06640625 28.67919922 308.31640625 C32.20701379 311.67713894 35.92170495 313.77376318 40.19091797 316.06640625 C41.38273682 316.71778564 41.38273682 316.71778564 42.59863281 317.38232422 C48.47046363 320.55967024 54.40423332 323.48772765 60.56591797 326.06640625 C60.56591797 326.72640625 60.56591797 327.38640625 60.56591797 328.06640625 C68.08225808 331.46615038 75.45855589 333.28105404 83.56591797 334.69140625 C84.74404053 334.90450439 85.92216309 335.11760254 87.13598633 335.3371582 C94.84861574 336.69697367 102.55311409 337.80393094 110.36083984 338.43408203 C115.36776954 338.86825782 115.36776954 338.86825782 117.56591797 341.06640625 C112.85197324 341.09125874 108.13806727 341.10933811 103.42407227 341.12133789 C101.82282852 341.1263443 100.2215893 341.1331514 98.62036133 341.1418457 C96.30923339 341.15407389 93.99816628 341.15967161 91.68701172 341.1640625 C90.97943222 341.16922379 90.27185272 341.17438507 89.54283142 341.17970276 C85.13076013 341.1801927 80.90820654 340.85726981 76.56591797 340.06640625 C76.23591797 339.73640625 75.90591797 339.40640625 75.56591797 339.06640625 C73.88312864 338.78644853 72.19409198 338.54395322 70.50341797 338.31640625 C63.87352838 337.26542256 57.69612618 335.37062676 51.33544922 333.29296875 C48.27844391 332.29825407 45.22068627 331.37916726 42.12841797 330.50390625 C37.38892814 329.07267417 33.00579096 327.25462937 28.56591797 325.06640625 C27.95296875 324.76460449 27.34001953 324.46280273 26.70849609 324.15185547 C16.87126968 319.2588358 8.16756192 313.93458913 -0.43408203 307.06640625 C-1.76449972 306.10402934 -3.09755832 305.14528514 -4.43408203 304.19140625 C-9.61398964 300.30378329 -14.30873955 295.84672406 -19.01171875 291.40527344 C-20.25822358 290.2319414 -21.51887077 289.07367113 -22.78173828 287.91796875 C-46.89404548 265.07473035 -63.39939146 231.18283092 -70.12158203 199.00390625 C-71.26626953 193.58984375 -71.26626953 193.58984375 -72.43408203 188.06640625 C-81.67408203 187.73640625 -90.91408203 187.40640625 -100.43408203 187.06640625 C-101.93115672 181.0781075 -101.63238002 175.08647687 -101.62158203 168.94140625 C-101.62064545 168.26279541 -101.61970886 167.58418457 -101.6187439 166.88500977 C-101.54699625 142.95027692 -97.71274553 120.4320149 -89.14331055 98.00512695 C-88.39018268 95.94640461 -87.73562397 93.86859182 -87.07861328 91.77734375 C-85.2721111 86.29625192 -82.7731701 81.18323159 -80.24658203 76.00390625 C-79.55145508 74.56241211 -79.55145508 74.56241211 -78.84228516 73.09179688 C-77.71101743 70.74762355 -76.57489193 68.40594654 -75.43408203 66.06640625 C-74.77408203 66.06640625 -74.11408203 66.06640625 -73.43408203 66.06640625 C-73.33353516 65.07253906 -73.33353516 65.07253906 -73.23095703 64.05859375 C-72.12971519 59.92353862 -69.99353786 56.76238563 -67.68408203 53.19140625 C-67.25353516 52.50949219 -66.82298828 51.82757813 -66.37939453 51.125 C-64.22901666 47.74491503 -62.01311439 44.52562842 -59.54345703 41.37109375 C-57.24445748 38.36891 -57.24445748 38.36891 -57.30517578 35.578125 C-58.91883687 31.98786867 -61.12249114 29.00408504 -63.49658203 25.87890625 C-68.43408203 19.31129029 -68.43408203 19.31129029 -68.43408203 17.06640625 C-69.09408203 17.06640625 -69.75408203 17.06640625 -70.43408203 17.06640625 C-70.43408203 16.07640625 -70.43408203 15.08640625 -70.43408203 14.06640625 C-58.82223031 9.36759707 -47.88277577 6.10013884 -35.48291016 4.38574219 C-32.40554952 3.90609637 -29.39898577 3.16715372 -26.37158203 2.44140625 C-17.61306771 0.5229702 -8.92158476 0.2433973 0 0 Z " fill="#61C14F" transform="translate(191.43408203125,62.93359375)"/>
<path d="M0 0 C22.56609646 -0.75536672 43.06164333 0.0595582 65 6 C65.87140625 6.23444824 66.7428125 6.46889648 67.640625 6.71044922 C98.19063882 15.15288564 123.86497706 32.82820792 146 55 C146.58523438 55.56203125 147.17046875 56.1240625 147.7734375 56.703125 C154.83512679 63.52368343 161.08618179 71.48631496 166 80 C166 80.66 166 81.32 166 82 C166.66 82 167.32 82 168 82 C168.67154933 83.28913487 169.33708859 84.58140204 170 85.875 C170.37125 86.59429687 170.7425 87.31359375 171.125 88.0546875 C172 90 172 90 172 92 C172.66 92 173.32 92 174 92 C174.515625 93.19625 175.03125 94.3925 175.5625 95.625 C176.83857887 98.53591302 178.18554279 101.34740842 179.68359375 104.15234375 C183.96784396 112.19567802 186.51147527 119.94686609 188.48339844 128.82470703 C189.61456949 133.58781386 191.03785444 138.28008807 192.42626953 142.97363281 C193.55246293 146.89891745 194 149.84885702 194 154 C203.57 154 213.14 154 223 154 C223.46444184 171.9274551 223.68513157 189.51712128 220.6875 207.25 C220.47456299 208.51980713 220.26162598 209.78961426 220.04223633 211.09790039 C219.03485904 216.63828788 217.90860349 221.89542303 215.76147461 227.10742188 C214.9017667 229.24415021 214.21131475 231.40239166 213.52734375 233.6015625 C205.96551018 257.64843293 195.38908245 281.23119152 179.23046875 300.80859375 C177.80725701 302.9268469 177.80725701 302.9268469 177.9921875 305.37890625 C179.35434671 308.92157613 181.5450822 311.60762392 183.9375 314.5 C186.95225768 318.17570173 189.33609831 321.5096078 191 326 C184.13621932 328.92117301 177.28586841 331.21110121 170.0625 333.0625 C168.56904053 333.44764771 168.56904053 333.44764771 167.04541016 333.84057617 C148.53657462 338.4832656 130.13076777 340.17773642 111.0625 340.1875 C109.80759766 340.19974609 108.55269531 340.21199219 107.25976562 340.22460938 C98.63639643 340.23795136 90.4962237 339.44538167 82 338 C83.38656324 333.84031028 86.18658715 333.08470964 89.875 331.1875 C109.89945747 320.36168523 128.36072379 305.2867333 142 287 C142.40025391 286.47470703 142.80050781 285.94941406 143.21289062 285.40820312 C149.80220653 276.73378879 155.12450661 267.72969641 160 258 C160.32202393 257.39889404 160.64404785 256.79778809 160.97583008 256.1784668 C163.95633307 250.51514895 165.96463377 244.63989628 167.9375 238.5625 C168.28449951 237.50281006 168.63149902 236.44312012 168.98901367 235.35131836 C170.00251943 232.2372801 171.00374861 229.11959588 172 226 C172.26522461 225.17628906 172.53044922 224.35257813 172.80371094 223.50390625 C175.89598983 213.82008036 178.08293221 204.22391505 179.63671875 194.17407227 C179.89641834 192.61988887 180.18928289 191.07110156 180.50390625 189.52709961 C181.99505067 182.11527442 182.42157155 174.86054311 182.625 167.3125 C182.68300781 165.52682617 182.68300781 165.52682617 182.7421875 163.70507812 C182.83540735 160.80361024 182.91874028 157.90182747 183 155 C176.07 155 169.14 155 162 155 C161.54625 151.82375 161.0925 148.6475 160.625 145.375 C156.00578649 117.27701348 144.618868 83.618868 124 63 C123.69715088 62.21181885 123.39430176 61.4236377 123.08227539 60.61157227 C114.55273712 40.02946741 83.61139961 25.99088757 65 17 C64.36739258 16.6920752 63.73478516 16.38415039 63.08300781 16.06689453 C59.2228417 14.29201632 55.40679953 13.33019652 51.27246094 12.48291016 C49.12346588 12.02623716 47.02784015 11.48373603 44.9140625 10.88671875 C34.00935166 7.82835972 23.06710169 5.60037533 11.90087891 3.69995117 C10.78890137 3.5063501 9.67692383 3.31274902 8.53125 3.11328125 C7.03948242 2.86251831 7.03948242 2.86251831 5.51757812 2.60668945 C3 2 3 2 0 0 Z " fill="#1C5611" transform="translate(291,63)"/>
<path d="M0 0 C4.18596821 0.52324603 7.37406931 2.09058783 11.03515625 4.0625 C13.01155698 5.00551426 14.86382253 5.54326718 17 6 C17 6.66 17 7.32 17 8 C19.31 8.66 21.62 9.32 24 10 C24 10.66 24 11.32 24 12 C25.051875 12.37125 25.051875 12.37125 26.125 12.75 C45.38973361 21.12597114 62.41625386 41.89183388 70.125 61 C70.75314084 62.66548547 71.37813769 64.33216007 72 66 C72.6843579 67.68877671 73.37185535 69.37628457 74.0625 71.0625 C75.61152593 74.93506481 77.00615261 78.82996166 78.28125 82.80078125 C78.75328866 84.24511693 79.25263987 85.68086446 79.78125 87.10546875 C84.04922174 98.82105118 84.28424063 110.69869721 84 123 C88.29 123 92.58 123 97 123 C97.09765625 133.05859375 97.09765625 133.05859375 97 136 C96.67 136.33 96.34 136.66 96 137 C95.70328815 139.16023302 95.41265707 141.3214662 95.15185547 143.48632812 C89.70677969 187.83039847 67.60235599 226.7561308 33.015625 254.8125 C31 256 31 256 27 256 C25.21034193 257.3423246 25.21034193 257.3423246 23.625 259.1875 C20.58817917 262.41453207 17.4503807 265.22286432 14 268 C12.74851783 264.14806292 13.57096417 262.01250421 15.08691406 258.28027344 C26.2135929 230.49332683 29.06341054 200.50537642 32 171 C32.66 171 33.32 171 34 171 C34 171.66 34 172.32 34 173 C34.88643188 173.41560181 34.88643188 173.41560181 35.79077148 173.83959961 C37.86891815 174.93114908 39.53108649 176.09049353 41.34765625 177.56640625 C41.95287109 178.05173828 42.55808594 178.53707031 43.18164062 179.03710938 C44.43981438 180.05749743 45.69762459 181.0783339 46.95507812 182.09960938 C47.8609668 182.82567383 47.8609668 182.82567383 48.78515625 183.56640625 C49.33051025 184.00927979 49.87586426 184.45215332 50.43774414 184.90844727 C52.13070043 186.20141971 52.13070043 186.20141971 55 187 C55.13341797 186.21689453 55.13341797 186.21689453 55.26953125 185.41796875 C56.06485106 182.78533258 57.27373047 180.56478721 58.62817383 178.18041992 C68.48282878 160.80361304 72.40478947 142.78061052 74 123 C73.36191406 123.01160156 72.72382813 123.02320313 72.06640625 123.03515625 C71.24011719 123.04417969 70.41382813 123.05320312 69.5625 123.0625 C68.73878906 123.07410156 67.91507812 123.08570313 67.06640625 123.09765625 C65 123 65 123 64 122 C63.90366319 119.872027 63.81477874 117.74348691 63.76098633 115.61401367 C63.22186569 95.51967991 60.73228437 74.4362043 50 57 C49.5875 55.96875 49.175 54.9375 48.75 53.875 C40.5520193 34.58076259 19.1756674 10.99125738 0 2 C0 1.34 0 0.68 0 0 Z " fill="#B7E9AE" transform="translate(357,109)"/>
<path d="M0 0 C-1.24225459 6.11751786 -2.89427515 11.96049271 -4.875 17.875 C-12.80025567 42.39180488 -16.06724294 68.39096892 -18 94 C-23.89521597 92.21322605 -28.06125096 88.00752452 -32.6484375 84.08007812 C-33.29296875 83.54447266 -33.9375 83.00886719 -34.6015625 82.45703125 C-35.18244629 81.96178955 -35.76333008 81.46654785 -36.36181641 80.95629883 C-37.17271729 80.48293091 -37.17271729 80.48293091 -38 80 C-42.26204263 81.42068088 -43.37269715 84.50695556 -45.4375 88.25 C-45.83855957 88.96784668 -46.23961914 89.68569336 -46.65283203 90.42529297 C-49.57287688 95.82027571 -51.6169616 101.17707288 -53.1484375 107.1328125 C-54 110 -54 110 -55.53125 113.02734375 C-59.90895657 121.88754242 -59.49505868 133.27323567 -60 143 C-56.7 143 -53.4 143 -50 143 C-49.94392578 145.21203125 -49.94392578 145.21203125 -49.88671875 147.46875 C-49.38797908 163.67983875 -47.19671706 178.38535298 -42.76953125 193.98828125 C-42 197 -42 197 -42 200 C-41.34 200 -40.68 200 -40 200 C-39.32404685 201.41225926 -38.65959941 202.83002905 -38 204.25 C-37.62875 205.03890625 -37.2575 205.8278125 -36.875 206.640625 C-36 209 -36 209 -36 213 C-35.34 213 -34.68 213 -34 213 C-33.38151042 214.92057292 -32.76302083 216.84114583 -32.14453125 218.76171875 C-30.60679689 221.76896035 -28.42463563 223.66056386 -26 226 C-23.71337086 228.72516075 -21.49964747 231.5004419 -19.28125 234.28125 C-17.00632014 237.08309332 -17.00632014 237.08309332 -14.21875 239.71875 C-12 242 -12 242 -12 244 C-11.01 244.33 -10.02 244.66 -9 245 C-9 245.66 -9 246.32 -9 247 C-8.41863281 247.25007812 -7.83726562 247.50015625 -7.23828125 247.7578125 C-4.70696729 249.16262548 -3.15124083 250.75527975 -1.1875 252.875 C2.29173259 256.46520248 5.54234293 258.77117147 10 261 C10 261.66 10 262.32 10 263 C11.65 263.33 13.3 263.66 15 264 C15 264.66 15 265.32 15 266 C9.74553944 265.41525596 5.58256167 263.69562029 0.875 261.4375 C0.12653809 261.08034912 -0.62192383 260.72319824 -1.39306641 260.35522461 C-31.1320945 245.82980903 -50.94961832 220.39867358 -61.78515625 189.62109375 C-63.0972419 185.71015035 -64.34598791 181.79313414 -65.45703125 177.8203125 C-65.9649403 175.92604157 -65.9649403 175.92604157 -67 174 C-67.64718559 170.49918507 -68.08348218 166.96481301 -68.5625 163.4375 C-68.70107422 162.47263672 -68.83964844 161.50777344 -68.98242188 160.51367188 C-69.79103735 154.61436393 -70.14131405 148.9536223 -70 143 C-73.96 143 -77.92 143 -82 143 C-82.54464814 127.93140156 -81.80726823 113.42180469 -77 99 C-76.34 99 -75.68 99 -75 99 C-74.88785156 98.17822266 -74.88785156 98.17822266 -74.7734375 97.33984375 C-70.6007649 72.1810825 -54.52315876 46.94242453 -37 29 C-36.41283203 28.39768555 -35.82566406 27.79537109 -35.22070312 27.17480469 C-33.36224386 25.27636807 -31.49615407 23.38592246 -29.625 21.5 C-29.04218262 20.91234863 -28.45936523 20.32469727 -27.85888672 19.71923828 C-19.10433767 11 -19.10433767 11 -16 11 C-17.44424635 14.23861303 -19.25772247 16.61969163 -21.625 19.25 C-22.25664062 19.95640625 -22.88828125 20.6628125 -23.5390625 21.390625 C-24.02117187 21.92171875 -24.50328125 22.4528125 -25 23 C-21.09578028 20.16056747 -18.09128433 16.94032303 -14.97265625 13.30078125 C-12.7389801 10.69556293 -10.47079725 8.12433752 -8.1875 5.5625 C-7.43855469 4.71816406 -6.68960938 3.87382813 -5.91796875 3.00390625 C-3.86391489 0.85781739 -2.97639193 0 0 0 Z " fill="#BAECB2" transform="translate(233,92)"/>
<path d="M0 0 C13.95667749 -0.3261541 27.68748926 0.63340084 41.56591797 2.06640625 C41.23591797 3.05640625 40.90591797 4.04640625 40.56591797 5.06640625 C38.92816406 4.97166016 38.92816406 4.97166016 37.25732422 4.875 C31.70819454 4.88353525 26.75737183 6.46884516 21.50341797 8.12890625 C20.48989258 8.44472656 19.47636719 8.76054688 18.43212891 9.0859375 C-17.81625845 20.69647911 -42.23010282 45.94232688 -59.43408203 79.06640625 C-60.87093701 82.03072868 -62.17603771 85.02313713 -63.43408203 88.06640625 C-64.07893245 89.46269394 -64.72480973 90.85850775 -65.37158203 92.25390625 C-70.35350164 103.54625736 -73.64869862 115.08458934 -76.43408203 127.06640625 C-77.09408203 127.06640625 -77.75408203 127.06640625 -78.43408203 127.06640625 C-78.48306641 127.61683594 -78.53205078 128.16726562 -78.58251953 128.734375 C-78.65728516 129.56582031 -78.73205078 130.39726562 -78.80908203 131.25390625 C-78.89802734 132.26710937 -78.98697266 133.2803125 -79.07861328 134.32421875 C-79.33990064 137.07491422 -79.62994152 139.81424276 -79.94580078 142.55859375 C-81.51846459 156.75454304 -81.63685442 170.79348317 -81.43408203 185.06640625 C-78.13408203 185.39640625 -74.83408203 185.72640625 -71.43408203 186.06640625 C-71.76408203 186.72640625 -72.09408203 187.38640625 -72.43408203 188.06640625 C-81.67408203 187.73640625 -90.91408203 187.40640625 -100.43408203 187.06640625 C-101.93115672 181.0781075 -101.63238002 175.08647687 -101.62158203 168.94140625 C-101.62064545 168.26279541 -101.61970886 167.58418457 -101.6187439 166.88500977 C-101.54699625 142.95027692 -97.71274553 120.4320149 -89.14331055 98.00512695 C-88.39018268 95.94640461 -87.73562397 93.86859182 -87.07861328 91.77734375 C-85.2721111 86.29625192 -82.7731701 81.18323159 -80.24658203 76.00390625 C-79.55145508 74.56241211 -79.55145508 74.56241211 -78.84228516 73.09179688 C-77.71101743 70.74762355 -76.57489193 68.40594654 -75.43408203 66.06640625 C-74.77408203 66.06640625 -74.11408203 66.06640625 -73.43408203 66.06640625 C-73.33353516 65.07253906 -73.33353516 65.07253906 -73.23095703 64.05859375 C-72.12971519 59.92353862 -69.99353786 56.76238563 -67.68408203 53.19140625 C-67.25353516 52.50949219 -66.82298828 51.82757813 -66.37939453 51.125 C-64.22901666 47.74491503 -62.01311439 44.52562842 -59.54345703 41.37109375 C-57.24445748 38.36891 -57.24445748 38.36891 -57.30517578 35.578125 C-58.91883687 31.98786867 -61.12249114 29.00408504 -63.49658203 25.87890625 C-68.43408203 19.31129029 -68.43408203 19.31129029 -68.43408203 17.06640625 C-69.09408203 17.06640625 -69.75408203 17.06640625 -70.43408203 17.06640625 C-70.43408203 16.07640625 -70.43408203 15.08640625 -70.43408203 14.06640625 C-58.82223031 9.36759707 -47.88277577 6.10013884 -35.48291016 4.38574219 C-32.40554952 3.90609637 -29.39898577 3.16715372 -26.37158203 2.44140625 C-17.61306771 0.5229702 -8.92158476 0.2433973 0 0 Z " fill="#379026" transform="translate(191.43408203125,62.93359375)"/>
<path d="M0 0 C7.92 0 15.84 0 24 0 C24 4.9236197 23.79457766 6.23806853 21 10 C20.34 10 19.68 10 19 10 C18.62875 11.7634375 18.62875 11.7634375 18.25 13.5625 C17.33917625 17.23163397 15.96592044 20.08569095 14.00390625 23.29296875 C12.00134139 26.69810821 10.62452855 30.42394918 9.171875 34.08984375 C6.58102943 40.33641632 3.02550613 45.58365888 -1 51 C-0.401875 51.268125 0.19625 51.53625 0.8125 51.8125 C5.20255605 54.19567328 6.49131708 56.7493955 8.0625 61.4375 C9.92141634 67.45154663 9.92141634 67.45154663 13.51171875 72.47265625 C15.33168499 74.34039064 15.93205374 75.98913574 16.8125 78.4375 C18.79308004 83.6702387 21.24615247 88.57181761 23.828125 93.53125 C25 96 25 96 25 98 C16.75 98 8.5 98 0 98 C-1.69587059 94.04296862 -3.3683283 90.12537764 -4.9375 86.125 C-8.42227833 77.40647913 -12.40457923 69.19516704 -17 61 C-19.86598793 60.61896478 -19.86598793 60.61896478 -23 61 C-24.9218149 62.91608626 -24.9218149 62.91608626 -26.1875 65.5625 C-26.68378906 66.48160156 -27.18007813 67.40070313 -27.69140625 68.34765625 C-29.65418028 72.32593554 -31.35692512 76.34264441 -32.9609375 80.4765625 C-34.69897483 84.9065975 -36.45987117 88.95888595 -39 93 C-39.66 94.65 -40.32 96.3 -41 98 C-48.26 98 -55.52 98 -63 98 C-61.40624947 89.93163794 -58.95358014 83.53699167 -54.97900391 76.44042969 C-53.00959794 72.91851916 -51.28640756 69.48103002 -49.875 65.6875 C-47.90880711 60.46480013 -45.33985671 55.48495044 -42 51 C-41.34 51 -40.68 51 -40 51 C-41.05662418 47.83012745 -42.22604541 45.71286124 -44.3125 43.0625 C-48.27397856 37.76093671 -49.96821476 31.22038866 -52 25 C-52.33 24.01 -52.66 23.02 -53 22 C-53.66 22 -54.32 22 -55 22 C-55.84770456 19.81716075 -56.67807547 17.63003921 -57.5 15.4375 C-57.9640625 14.21933594 -58.428125 13.00117188 -58.90625 11.74609375 C-60 8 -60 8 -60 1 C-52.41 1 -44.82 1 -37 1 C-33.75 10.6875 -33.75 10.6875 -32.75292969 13.71362305 C-31.07795119 18.59733679 -29.3352169 22.00867485 -26 26 C-24.734375 29.33203125 -24.734375 29.33203125 -23.75 32.8125 C-23.41484375 33.97394531 -23.0796875 35.13539063 -22.734375 36.33203125 C-22.49203125 37.21246094 -22.2496875 38.09289062 -22 39 C-20.35 39 -18.7 39 -17 39 C-11.07395382 26.11016683 -5.40972739 13.11449065 0 0 Z " fill="#78DB66" transform="translate(322,195)"/>
<path d="M0 0 C-2.8888795 2.27222772 -5.83892337 4.05460713 -9.0625 5.8125 C-39.76259106 23.64921551 -69.71791501 52.21897161 -81.140625 86.6875 C-82 89 -82 89 -84 92 C-84.72092919 94.05979769 -85.43151699 96.12371334 -86.09375 98.203125 C-86.72837675 100.16171446 -87.3981404 102.10910539 -88.09375 104.046875 C-92.35441774 116.11876693 -95.14273009 128.53366185 -98 141 C-98.66 141 -99.32 141 -100 141 C-100.79377939 150.26725269 -101.26453521 159.51697564 -101.5625 168.8125 C-101.60568359 170.08931641 -101.64886719 171.36613281 -101.69335938 172.68164062 C-101.79805755 175.7876865 -101.90023438 178.89379246 -102 182 C-105.14581423 182.02888514 -108.29159469 182.04675923 -111.4375 182.0625 C-112.33533203 182.07087891 -113.23316406 182.07925781 -114.15820312 182.08789062 C-115.01220703 182.09111328 -115.86621094 182.09433594 -116.74609375 182.09765625 C-117.53685303 182.10289307 -118.3276123 182.10812988 -119.14233398 182.11352539 C-121 182 -121 182 -122 181 C-122.26124846 176.71552526 -122.19026102 172.41644592 -122.1875 168.125 C-122.18669434 166.855354 -122.18588867 165.58570801 -122.18505859 164.27758789 C-122.09503974 150.32554788 -120.8864437 136.66454732 -118 123 C-117.34 123 -116.68 123 -116 123 C-115.89300781 121.88496094 -115.78601563 120.76992187 -115.67578125 119.62109375 C-115.04470245 114.59788331 -113.6698841 109.89220304 -112.1875 105.0625 C-111.93935547 104.22009766 -111.69121094 103.37769531 -111.43554688 102.50976562 C-109.70335206 96.78426672 -107.50977654 91.42308579 -105 86 C-104.4132312 84.62646254 -103.82947093 83.2516322 -103.25 81.875 C-95.1935946 63.92694627 -84.73166132 48.07874913 -71 34 C-70.42121094 33.35933594 -69.84242188 32.71867187 -69.24609375 32.05859375 C-54.07008433 15.66546077 -33.22865109 7.92907218 -12.39746094 1.72094727 C-8.00697608 0.40067214 -4.62472892 -0.08725904 0 0 Z " fill="#82DF71" transform="translate(231,67)"/>
<path d="M0 0 C1.20474976 0.00676758 1.20474976 0.00676758 2.43383789 0.01367188 C3.04219482 0.01947266 3.65055176 0.02527344 4.27734375 0.03125 C4.41720703 0.67336426 4.55707031 1.31547852 4.70117188 1.97705078 C10.35461741 27.5675265 18.51598692 63.49929346 40.5703125 80.625 C43.88202711 83.35318595 46.50766422 86.77008245 49.27734375 90.03125 C55.10114845 96.86741701 61.05392891 102.68914237 68.27734375 108.03125 C68.82616211 108.43907715 69.37498047 108.8469043 69.94042969 109.26708984 C78.28148385 115.43873218 86.5587647 121.22636266 96.2265625 125.16015625 C98.97120495 126.3259758 101.64656486 127.62637261 104.33984375 128.90625 C110.06681725 131.56309338 115.8563682 133.76187294 121.82421875 135.8125 C125.10962898 136.97205655 128.30679262 138.26668873 131.52734375 139.59375 C138.24096385 142.21651559 145.07440969 143.69395406 152.11328125 145.13671875 C154.69549013 145.66700426 157.12535527 146.28487007 159.66015625 147.04296875 C182.49607561 153.28215622 206.71615757 151.92034744 229.83154297 148.39501953 C233.30664088 147.87816029 236.78935311 147.45144069 240.27734375 147.03125 C239.94734375 147.69125 239.61734375 148.35125 239.27734375 149.03125 C238.28734375 149.03125 237.29734375 149.03125 236.27734375 149.03125 C236.27734375 149.69125 236.27734375 150.35125 236.27734375 151.03125 C186.87285749 161.3730982 139.30281656 160.44204229 92.27734375 140.03125 C90.61150504 139.42480419 88.94489477 138.82047148 87.27734375 138.21875 C62.54671874 128.26917735 29.15682568 103.40686465 17.3125 79.046875 C17.07402344 78.44359375 16.83554688 77.8403125 16.58984375 77.21875 C15.2226585 73.89844297 13.85564499 72.44840741 11.27734375 70.03125 C7.36935437 64.4949317 4.76993507 57.62606675 3.27734375 51.03125 C2.61734375 51.03125 1.95734375 51.03125 1.27734375 51.03125 C-1.60742247 42.00678223 -4.36222004 32.95164307 -6.97265625 23.84375 C-7.23062988 22.94760986 -7.48860352 22.05146973 -7.75439453 21.12817383 C-9.72485596 14.2079605 -10.84474339 8.234391 -10.72265625 1.03125 C-7.1025399 0.28866203 -3.68299558 -0.02690773 0 0 Z " fill="#A4E199" transform="translate(105.72265625,264.96875)"/>
<path d="M0 0 C1.81505953 0.23212011 3.63016561 0.46387649 5.4453125 0.6953125 C17.49927749 2.27822039 28.64823914 4.57473729 40 9 C41.010625 9.33 42.02125 9.66 43.0625 10 C45.77373848 10.9229748 48.35931284 12.00881247 50.97705078 13.16625977 C53.30457261 14.12552685 55.6696696 14.90926007 58.0546875 15.71484375 C64.10238204 17.90526049 69.44896103 20.8608477 74.9375 24.1875 C75.89970459 24.76483887 76.86190918 25.34217773 77.85327148 25.93701172 C84.92722457 30.23291528 91.59772361 34.74164619 98 40 C98.50756836 40.40895508 99.01513672 40.81791016 99.53808594 41.23925781 C110.65982706 50.21623625 122.07533297 59.99978993 130 72 C130 72.66 130 73.32 130 74 C130.66 74 131.32 74 132 74 C132.556875 75.05316406 133.11375 76.10632813 133.6875 77.19140625 C134.05238525 77.88073242 134.41727051 78.57005859 134.79321289 79.28027344 C135.60901901 80.82309269 136.42326877 82.36673575 137.23608398 83.91113281 C139.15018149 87.54127937 141.07438709 91.15982202 143.09765625 94.73046875 C153.63545478 113.46952511 160.96999542 134.54605683 163 156 C157.72 156 152.44 156 147 156 C145.58333153 151.74999459 144.5665299 148.08388948 143.75 143.75 C139.53359493 123.72207593 130.33279434 92.31536396 113.625 79.125 C111.21575173 77.17465616 109.81709465 75.52855703 108 73.0625 C99.65450734 62.07968715 89.29018333 52.85585813 78 45 C77.14559326 44.40372803 77.14559326 44.40372803 76.27392578 43.79541016 C47.84539698 24.30716352 13.95877739 12.13317816 -20 7 C-21.61249634 6.74621582 -21.61249634 6.74621582 -23.25756836 6.48730469 C-32.41556432 5.14048781 -41.30039078 4.69445512 -50.5625 4.75 C-51.85607422 4.74226563 -53.14964844 4.73453125 -54.48242188 4.7265625 C-63.15701986 4.74395518 -71.44735584 5.6018577 -80 7 C-82.6644806 7.35651327 -85.33088904 7.67970668 -88 8 C-70.44206533 -9.55793467 -21.94881501 -3.00409182 0 0 Z " fill="#A4E199" transform="translate(348,46)"/>
<path d="M0 0 C1.35917066 3.75824371 0.60901333 6.42419112 -0.3125 10.25 C-2.72804929 21.00689468 -3.2406957 32.02757573 -4 43 C-3.21496094 42.98839844 -2.42992187 42.97679687 -1.62109375 42.96484375 C-0.57050781 42.95582031 0.48007813 42.94679687 1.5625 42.9375 C2.59503906 42.92589844 3.62757813 42.91429687 4.69140625 42.90234375 C8 43 8 43 15 44 C15.33 39.05 15.66 34.1 16 29 C16.33 29 16.66 29 17 29 C17 33.95 17 38.9 17 44 C20.3 44 23.6 44 27 44 C27.05607422 46.21203125 27.05607422 46.21203125 27.11328125 48.46875 C27.61202092 64.67983875 29.80328294 79.38535298 34.23046875 94.98828125 C35 98 35 98 35 101 C35.66 101 36.32 101 37 101 C37.67595315 102.41225926 38.34040059 103.83002905 39 105.25 C39.37125 106.03890625 39.7425 106.8278125 40.125 107.640625 C41 110 41 110 41 114 C41.66 114 42.32 114 43 114 C43.61848958 115.92057292 44.23697917 117.84114583 44.85546875 119.76171875 C46.39320311 122.76896035 48.57536437 124.66056386 51 127 C53.28662914 129.72516075 55.50035253 132.5004419 57.71875 135.28125 C59.99367986 138.08309332 59.99367986 138.08309332 62.78125 140.71875 C65 143 65 143 65 145 C65.99 145.33 66.98 145.66 68 146 C68 146.66 68 147.32 68 148 C68.58136719 148.25007812 69.16273438 148.50015625 69.76171875 148.7578125 C72.29303271 150.16262548 73.84875917 151.75527975 75.8125 153.875 C79.29173259 157.46520248 82.54234293 159.77117147 87 162 C87 162.66 87 163.32 87 164 C88.65 164.33 90.3 164.66 92 165 C92 165.66 92 166.32 92 167 C86.74553944 166.41525596 82.58256167 164.69562029 77.875 162.4375 C76.75230713 161.90177368 76.75230713 161.90177368 75.60693359 161.35522461 C45.8679055 146.82980903 26.05038168 121.39867358 15.21484375 90.62109375 C13.9027581 86.71015035 12.65401209 82.79313414 11.54296875 78.8203125 C11.0350597 76.92604157 11.0350597 76.92604157 10 75 C9.35281441 71.49918507 8.91651782 67.96481301 8.4375 64.4375 C8.29892578 63.47263672 8.16035156 62.50777344 8.01757812 61.51367188 C7.20896265 55.61436393 6.85868595 49.9536223 7 44 C3.04 44 -0.92 44 -5 44 C-5.54464814 28.93140156 -4.80726823 14.42180469 0 0 Z " fill="#5ACB47" transform="translate(156,191)"/>
<path d="M0 0 C4.18596821 0.52324603 7.37406931 2.09058783 11.03515625 4.0625 C13.01155698 5.00551426 14.86382253 5.54326718 17 6 C17 6.66 17 7.32 17 8 C19.31 8.66 21.62 9.32 24 10 C24 10.66 24 11.32 24 12 C25.051875 12.37125 25.051875 12.37125 26.125 12.75 C45.38973361 21.12597114 62.41625386 41.89183388 70.125 61 C70.75314084 62.66548547 71.37813769 64.33216007 72 66 C72.6843579 67.68877671 73.37185535 69.37628457 74.0625 71.0625 C75.61152593 74.93506481 77.00615261 78.82996166 78.28125 82.80078125 C78.75328866 84.24511693 79.25263987 85.68086446 79.78125 87.10546875 C84.04922174 98.82105118 84.28424063 110.69869721 84 123 C80.535 123.495 80.535 123.495 77 124 C76.90203125 125.14855469 76.8040625 126.29710937 76.703125 127.48046875 C75.80031286 137.14035017 74.33429802 145.83877339 71 155 C70.11265717 152.08258594 69.96702677 150.01423514 70.5234375 147.0234375 C70.65709717 146.27433105 70.79075684 145.52522461 70.9284668 144.75341797 C71.14950073 143.57610107 71.14950073 143.57610107 71.375 142.375 C72.52523129 135.9199513 73.47246218 129.54146893 74 123 C73.36191406 123.01160156 72.72382813 123.02320313 72.06640625 123.03515625 C71.24011719 123.04417969 70.41382813 123.05320312 69.5625 123.0625 C68.73878906 123.07410156 67.91507812 123.08570313 67.06640625 123.09765625 C65 123 65 123 64 122 C63.90366319 119.872027 63.81477874 117.74348691 63.76098633 115.61401367 C63.22186569 95.51967991 60.73228437 74.4362043 50 57 C49.5875 55.96875 49.175 54.9375 48.75 53.875 C40.5520193 34.58076259 19.1756674 10.99125738 0 2 C0 1.34 0 0.68 0 0 Z " fill="#5BC848" transform="translate(357,109)"/>
<path d="M0 0 C4.455 0.99 4.455 0.99 9 2 C9 2.66 9 3.32 9 4 C11.31 4.66 13.62 5.32 16 6 C16 6.66 16 7.32 16 8 C17.051875 8.37125 17.051875 8.37125 18.125 8.75 C37.38973361 17.12597114 54.41625386 37.89183388 62.125 57 C62.75314084 58.66548547 63.37813769 60.33216007 64 62 C64.6843579 63.68877671 65.37185535 65.37628457 66.0625 67.0625 C67.61188511 70.93596278 69.01020228 74.83015632 70.27734375 78.8046875 C70.74998356 80.24049059 71.26188252 81.66410401 71.81640625 83.0703125 C76.00945934 94.04922446 75.15840352 106.4189425 75 118 C72.03 118 69.06 118 66 118 C65.89453857 117.01193359 65.78907715 116.02386719 65.68041992 115.00585938 C65.28279982 111.30706241 64.87130743 107.60991379 64.45581055 103.91308594 C64.27857507 102.31909553 64.10500186 100.72469316 63.93530273 99.12988281 C63.68937752 96.82496501 63.42990135 94.52189716 63.16796875 92.21875 C63.09595749 91.51633179 63.02394623 90.81391357 62.94975281 90.09020996 C62.35242392 85.00302733 60.90916783 80.75388766 59 76 C58.71125 74.9275 58.4225 73.855 58.125 72.75 C49.22538911 43.08463038 29.70442949 18.50564238 2.93359375 3.26171875 C1 2 1 2 0 0 Z " fill="#D2EECD" transform="translate(365,113)"/>
<path d="M0 0 C1.4540625 0.0309375 1.4540625 0.0309375 2.9375 0.0625 C2.97713867 0.710979 3.01677734 1.35945801 3.05761719 2.02758789 C4.04110667 17.3708388 5.18248747 31.92228167 11.953125 45.984375 C12.98551214 48.16385897 13.83593694 50.36910489 14.6875 52.625 C26.11624235 81.19685586 44.95754516 104.40403863 72.9375 118.0625 C72.9375 118.3925 72.9375 118.7225 72.9375 119.0625 C54.87470142 117.25169313 36.09786812 101.01198091 24.8359375 87.40234375 C12.17717269 71.45377552 3.94633589 53.42742833 -1.51953125 33.8828125 C-2.0274403 31.98854157 -2.0274403 31.98854157 -3.0625 30.0625 C-3.30122986 27.61920305 -3.48698809 25.19928544 -3.625 22.75 C-3.6667334 22.04029053 -3.7084668 21.33058105 -3.75146484 20.59936523 C-4.10705963 14.10359187 -4.42537421 7.56221747 -4.0625 1.0625 C-3.0625 0.0625 -3.0625 0.0625 0 0 Z " fill="#DBF0D7" transform="translate(169.0625,235.9375)"/>
<path d="M0 0 C-0.66 1.32 -1.32 2.64 -2 4 C-2 3.34 -2 2.68 -2 2 C-6.48393233 4.62474088 -9.52282732 7.53152935 -12.85546875 11.49609375 C-15.63472641 14.74109222 -18.5322717 17.86792044 -21.4375 21 C-21.98229004 21.58837646 -22.52708008 22.17675293 -23.08837891 22.78295898 C-24.39134038 24.18948493 -25.69553817 25.59486542 -27 27 C-27 23.06111246 -25.71256133 22.26454258 -23.0625 19.4375 C-20.19301173 16.45371254 -20.19301173 16.45371254 -18 13 C-32.42649342 23.36677668 -45.86436953 36.74216205 -55 52 C-55.66902344 53.093125 -56.33804688 54.18625 -57.02734375 55.3125 C-65.63597033 69.85298252 -72.01889628 84.86801635 -77 101 C-78.14835997 97.02423858 -77.85797326 94.07537299 -77 90 C-76.53207031 89.22914063 -76.06414062 88.45828125 -75.58203125 87.6640625 C-73.85880314 84.76223147 -72.94832078 82.02944676 -71.9375 78.8125 C-64.88301604 58.64174498 -51.95428847 41.03398217 -37 26 C-36.49629883 25.49227051 -35.99259766 24.98454102 -35.47363281 24.46142578 C-10.87862392 0 -10.87862392 0 0 0 Z " fill="#339023" transform="translate(235,90)"/>
<path d="M0 0 C5.16843982 0.54243032 9.04337949 3.12228872 13.4375 5.6875 C24.1522351 11.77830055 34.88969452 16.60613355 46.76953125 20.04296875 C48.51367286 20.55967334 50.25508704 21.09082037 51.96878052 21.70095825 C57.28655525 23.59123618 62.38098647 24.69856945 67.97265625 25.38671875 C68.78117538 25.49345413 69.58969452 25.60018951 70.42271423 25.7101593 C72.96830613 26.0442901 75.51527179 26.36610833 78.0625 26.6875 C79.80414296 26.91389576 81.54568073 27.14110224 83.28710938 27.36914062 C87.5235834 27.92212481 91.76133444 28.46408408 96 29 C95.67 29.66 95.34 30.32 95 31 C91.46173745 32.17942085 88.65851274 32.11289189 84.92578125 32.09765625 C83.90003242 32.09553383 83.90003242 32.09553383 82.8535614 32.09336853 C80.67316278 32.08777876 78.49286749 32.07522822 76.3125 32.0625 C74.83268378 32.05748367 73.35286594 32.052921 71.87304688 32.04882812 C68.24866443 32.03781271 64.6243423 32.02055512 61 32 C61 31.67 61 31.34 61 31 C68.92 30.67 76.84 30.34 85 30 C81.2875 29.5875 77.575 29.175 73.75 28.75 C58.16567983 26.92333756 42.72089589 24.62505778 28 19 C28.66 18.67 29.32 18.34 30 18 C30 17.34 30 16.68 30 16 C28.824375 15.67 27.64875 15.34 26.4375 15 C21.80468907 13.46308336 17.60333307 11.35770735 13.3125 9.0625 C12.68335693 8.72669922 12.05421387 8.39089844 11.40600586 8.04492188 C7.45381229 5.89381349 3.66851903 3.60910032 0 1 C0 0.67 0 0.34 0 0 Z " fill="#236218" transform="translate(222,373)"/>
<path d="M0 0 C1.35917066 3.75824371 0.60901333 6.42419112 -0.3125 10.25 C-2.72804929 21.00689468 -3.2406957 32.02757573 -4 43 C-3.21496094 42.98839844 -2.42992187 42.97679687 -1.62109375 42.96484375 C-0.57050781 42.95582031 0.48007813 42.94679687 1.5625 42.9375 C2.59503906 42.92589844 3.62757813 42.91429687 4.69140625 42.90234375 C8 43 8 43 15 44 C15.33 39.05 15.66 34.1 16 29 C16.33 29 16.66 29 17 29 C17.03738281 30.28648437 17.07476562 31.57296875 17.11328125 32.8984375 C17.70466907 50.04707722 19.48925291 67.02831534 22 84 C14.74914076 73.12371114 15.85166283 57.5097684 16 45 C13.03 45.495 13.03 45.495 10 46 C10 52.6 10 59.2 10 66 C5.88189841 59.82284762 6.88362578 51.21520141 7 44 C3.04 44 -0.92 44 -5 44 C-5.54464814 28.93140156 -4.80726823 14.42180469 0 0 Z " fill="#7DC072" transform="translate(156,191)"/>
<path d="M0 0 C6.27 0 12.54 0 19 0 C19.9653505 2.8960515 20.26325146 5.22300083 20.5 8.25 C20.85840948 12.53384668 21.33938145 16.75316645 22 21 C22.66 21 23.32 21 24 21 C24.12375 21.72960937 24.2475 22.45921875 24.375 23.2109375 C28.1126467 42.13277391 38.18039105 63.53156675 51 78 C50.67 78.66 50.34 79.32 50 80 C32.28519567 61.37674416 17 26.85496378 17 1 C12.05 1.33 7.1 1.66 2 2 C2.33 4.041875 2.66 6.08375 3 8.1875 C3.64502569 12.17859648 4.12187932 15.95513017 4 20 C2 19 2 19 1 16 C0.77190557 13.26568283 0.5835729 10.55075247 0.4375 7.8125 C0.293125 5.234375 0.14875 2.65625 0 0 Z " fill="#2F951E" transform="translate(93,264)"/>
<path d="M0 0 C4.3057207 3.92128135 7.11835402 8.08589133 10 13.125 C10.43932861 13.88635254 10.87865723 14.64770508 11.33129883 15.43212891 C22.00902367 34.15139741 29.02109869 54.68939832 32 76 C37.28 76 42.56 76 48 76 C48 76.33 48 76.66 48 77 C42.06 77 36.12 77 30 77 C28.69358945 74.3871789 28.67238483 72.10256296 28.375 69.1875 C25.27067995 46.86378671 15.04693863 21.62629512 1.23828125 3.71484375 C0 2 0 2 0 0 Z " fill="#43A531" transform="translate(463,126)"/>
<path d="M0 0 C7.26 0 14.52 0 22 0 C22.33 1.65 22.66 3.3 23 5 C21.37799485 6.62200515 19.57976969 6.1299075 17.34375 6.1328125 C15.93416016 6.13474609 15.93416016 6.13474609 14.49609375 6.13671875 C13.50738281 6.13285156 12.51867187 6.12898437 11.5 6.125 C10.51128906 6.12886719 9.52257812 6.13273438 8.50390625 6.13671875 C7.56417969 6.13542969 6.62445313 6.13414062 5.65625 6.1328125 C4.78806641 6.13168457 3.91988281 6.13055664 3.02539062 6.12939453 C1 6 1 6 0 5 C0 3.35 0 1.7 0 0 Z " fill="#8DE37E" transform="translate(262,196)"/>
<path d="M0 0 C7.26 0 14.52 0 22 0 C21 4 21 4 20 6 C13.07 6 6.14 6 -1 6 C-0.67 4.02 -0.34 2.04 0 0 Z " fill="#8DE27E" transform="translate(323,196)"/>
<path d="M0 0 C0.66 0.33 1.32 0.66 2 1 C1.46632812 1.83917969 0.93265625 2.67835938 0.3828125 3.54296875 C-9.73563844 19.75133452 -17.5043945 36.70365486 -23 55 C-24.14835997 51.02423858 -23.85797326 48.07537299 -23 44 C-22.53207031 43.22914063 -22.06414062 42.45828125 -21.58203125 41.6640625 C-19.85880314 38.76223147 -18.94832078 36.02944676 -17.9375 32.8125 C-15.82096309 26.71378574 -13.14631726 21.1959006 -10 15.5625 C-9.58484131 14.81782471 -9.16968262 14.07314941 -8.74194336 13.3059082 C-6.08790504 8.65364564 -3.17974911 4.30969566 0 0 Z " fill="#3A962A" transform="translate(181,136)"/>
<path d="M0 0 C6.21730366 -0.12978467 12.00177785 0.26841294 18.125 1.3125 C18.94105713 1.44857666 19.75711426 1.58465332 20.59790039 1.72485352 C22.26180493 2.00592394 23.92499062 2.2912855 25.58740234 2.58105469 C27.14641599 2.85177594 28.70659342 3.11591479 30.26806641 3.37207031 C32.32786778 3.71047624 34.38268311 4.07018285 36.4375 4.4375 C37.61183594 4.64246094 38.78617187 4.84742187 39.99609375 5.05859375 C43.33094928 6.10371753 44.78290105 7.34710765 47 10 C42.99956907 11.59230912 40.36660304 10.29066388 36.4375 8.875 C24.63842467 4.84985428 12.25574999 3.09149377 0 1 C0 0.67 0 0.34 0 0 Z " fill="#11350A" transform="translate(299,65)"/>
<path d="M0 0 C4.455 0.99 4.455 0.99 9 2 C9 2.66 9 3.32 9 4 C11.31 4.66 13.62 5.32 16 6 C16 6.66 16 7.32 16 8 C16.70125 8.165 17.4025 8.33 18.125 8.5 C21.67779947 10.35363451 23.04254332 12.52735941 25.30859375 15.7578125 C28.15860769 19.53589102 31.58313584 22.73923624 35 26 C32 26 32 26 29.65234375 23.83984375 C28.75644531 22.88207031 27.86054688 21.92429688 26.9375 20.9375 C19.82528462 13.55569442 11.82354557 8.3238598 2.93359375 3.26171875 C1 2 1 2 0 0 Z " fill="#E1F5DD" transform="translate(365,113)"/>
<path d="M0 0 C0 4.96138451 -3.70610083 7.52217753 -7 11 C-8.34384766 12.423125 -8.34384766 12.423125 -9.71484375 13.875 C-19.17547036 23.70418137 -29.91324142 32.55234663 -42 39 C-42.99 39 -43.98 39 -45 39 C-41.04 35.37 -37.08 31.74 -33 28 C-32.67 28.66 -32.34 29.32 -32 30 C-20.57224 21.41537836 -8.33970485 11.71849202 0 0 Z " fill="#30911F" transform="translate(418,335)"/>
<path d="M0 0 C5.09031755 -0.04936158 10.18049643 -0.08570105 15.27099609 -0.10986328 C17.00344265 -0.11993376 18.73587216 -0.13359089 20.46826172 -0.15087891 C22.95544639 -0.17508162 25.44240675 -0.18647239 27.9296875 -0.1953125 C28.70682098 -0.20563507 29.48395447 -0.21595764 30.28463745 -0.22659302 C32.19125493 -0.22699271 34.09731036 -0.1223214 36 0 C36.66 0.66 37.32 1.32 38 2 C36.35 2 34.7 2 33 2 C33 2.66 33 3.32 33 4 C28.78171639 3.76330425 24.56434434 3.51480043 20.34741211 3.25537109 C18.91303398 3.16879283 17.47845773 3.08543381 16.04370117 3.00537109 C13.98034995 2.88966916 11.91799032 2.76237446 9.85546875 2.6328125 C8.61434326 2.55949707 7.37321777 2.48618164 6.09448242 2.41064453 C3 2 3 2 0 0 Z " fill="#1E6012" transform="translate(291,63)"/>
<path d="M0 0 C1.88472859 0.15344209 3.77427874 0.24959571 5.6640625 0.31640625 C7.34628906 0.37924805 7.34628906 0.37924805 9.0625 0.44335938 C10.238125 0.48267578 11.41375 0.52199219 12.625 0.5625 C13.80835938 0.60568359 14.99171875 0.64886719 16.2109375 0.69335938 C19.14050328 0.79967426 22.07015588 0.90170642 25 1 C25 1.33 25 1.66 25 2 C23.65591064 2.029729 23.65591064 2.029729 22.28466797 2.06005859 C18.88861065 2.13919937 15.49290738 2.22591004 12.09716797 2.31738281 C10.64086076 2.35514248 9.18447691 2.39007624 7.72802734 2.421875 C-2.01363769 2.63701184 -11.36810682 3.44152392 -21 5 C-23.66453633 5.35579862 -26.33092902 5.67971148 -29 6 C-23.05113867 0.05113867 -12.57886762 -0.51357316 -4.6171875 -1.01953125 C-2 -1 -2 -1 0 0 Z " fill="#E4E4E4" transform="translate(289,48)"/>
<path d="M0 0 C2.00161643 2.00161643 2.58399097 3.11275972 3.59375 5.68359375 C3.89676025 6.43721191 4.19977051 7.19083008 4.51196289 7.96728516 C4.83801514 8.78245605 5.16406738 9.59762695 5.5 10.4375 C11.04789176 23.92036244 17.10437951 38.08860389 27 49 C26.67 49.66 26.34 50.32 26 51 C15.28095337 39.73125867 0 16.01665893 0 0 Z " fill="#41A330" transform="translate(117,293)"/>
<path d="M0 0 C6.57279525 -0.21202565 12.96902209 0.19087649 19.5 0.875 C20.70245361 0.99270752 20.70245361 0.99270752 21.92919922 1.11279297 C27.76074219 1.76074219 27.76074219 1.76074219 30 4 C25.77084783 4.02908633 21.54172148 4.04682792 17.3125 4.0625 C16.11431641 4.07087891 14.91613281 4.07925781 13.68164062 4.08789062 C12.52470703 4.09111328 11.36777344 4.09433594 10.17578125 4.09765625 C9.11270752 4.10289307 8.04963379 4.10812988 6.9543457 4.11352539 C4.1865491 4.00716844 1.69207103 3.62894788 -1 3 C-0.67 2.01 -0.34 1.02 0 0 Z " fill="#84CE76" transform="translate(279,400)"/>
<path d="M0 0 C-0.66 1.32 -1.32 2.64 -2 4 C-2 3.34 -2 2.68 -2 2 C-6.48393233 4.62474088 -9.52282732 7.53152935 -12.85546875 11.49609375 C-15.63472641 14.74109222 -18.5322717 17.86792044 -21.4375 21 C-21.98229004 21.58837646 -22.52708008 22.17675293 -23.08837891 22.78295898 C-24.39134038 24.18948493 -25.69553817 25.59486542 -27 27 C-27 23.17937987 -26.02759344 22.64554836 -23.4375 19.9375 C-20.42620544 16.6990376 -17.93623137 13.47776123 -15.5625 9.75 C-11.86946757 4.29959352 -6.84231053 0 0 0 Z " fill="#68D256" transform="translate(235,90)"/>
<path d="M0 0 C0.33 0 0.66 0 1 0 C2.11165232 4.4378561 2.11527763 8.76956386 2.0625 13.3125 C2.05798828 14.05306641 2.05347656 14.79363281 2.04882812 15.55664062 C2.03712175 17.37112899 2.01918898 19.18557534 2 21 C-0.31 21.33 -2.62 21.66 -5 22 C-5.09796875 23.14855469 -5.1959375 24.29710937 -5.296875 25.48046875 C-6.19968714 35.14035017 -7.66570198 43.83877339 -11 53 C-12.13732426 49.59598052 -11.83989957 47.22543336 -11.0625 43.75 C-10.86785156 42.85796875 -10.67320312 41.9659375 -10.47265625 41.046875 C-10.31667969 40.37140625 -10.16070312 39.6959375 -10 39 C-9.34 39 -8.68 39 -8 39 C-7.67 32.73 -7.34 26.46 -7 20 C-4.36 20 -1.72 20 1 20 C0.67 13.4 0.34 6.8 0 0 Z " fill="#82B979" transform="translate(439,211)"/>
<path d="M0 0 C4.62835666 0.64282731 7.22533664 2.14817736 10.4375 5.5 C12.02673218 7.15534954 12.02673218 7.15534954 14.5 8.375 C17 10 17 10 18.3125 12.25 C20.40738317 15.66388369 23.0165528 17.7857158 26.05859375 20.3515625 C28.15392452 22.13069648 30.09673417 24.01743143 32 26 C31.67 26.66 31.34 27.32 31 28 C30.443125 27.43152344 29.88625 26.86304688 29.3125 26.27734375 C15.979597 12.361028 15.979597 12.361028 0 2 C0 1.34 0 0.68 0 0 Z " fill="#339B21" transform="translate(357,109)"/>
<path d="M0 0 C-0.75 4.75 -0.75 4.75 -3 7 C-3.66 7 -4.32 7 -5 7 C-6.42899287 8.25635539 -7.79680795 9.58267849 -9.1328125 10.9375 C-9.93847656 11.74960938 -10.74414062 12.56171875 -11.57421875 13.3984375 C-12.41597656 14.25695312 -13.25773438 15.11546875 -14.125 16 C-14.97449219 16.85851562 -15.82398438 17.71703125 -16.69921875 18.6015625 C-18.80399951 20.72999249 -20.90398833 22.86293959 -23 25 C-23 20.65088008 -20.3044778 18.77705177 -17.4375 15.8125 C-16.33375981 14.64796469 -15.23089237 13.48260156 -14.12890625 12.31640625 C-13.59152832 11.75066895 -13.05415039 11.18493164 -12.50048828 10.60205078 C-10.01031641 7.94332839 -7.65454641 5.17304501 -5.3046875 2.390625 C-3.57886626 0.55112691 -2.53423544 0 0 0 Z " fill="#E0F3DC" transform="translate(233,92)"/>
<path d="M0 0 C-1.32 0.33 -2.64 0.66 -4 1 C-4 1.66 -4 2.32 -4 3 C-13.67776511 5.45910425 -21.15130519 6.54928972 -31 4 C-31 3.67 -31 3.34 -31 3 C-29.9941687 2.87153687 -29.9941687 2.87153687 -28.96801758 2.74047852 C-25.91594286 2.3496335 -22.86422146 1.95609335 -19.8125 1.5625 C-18.75740234 1.42779297 -17.70230469 1.29308594 -16.61523438 1.15429688 C-15.08286133 0.95610352 -15.08286133 0.95610352 -13.51953125 0.75390625 C-12.11344604 0.57323608 -12.11344604 0.57323608 -10.67895508 0.38891602 C-7.99004876 0.03559278 -7.99004876 0.03559278 -5.3425293 -0.60961914 C-3 -1 -3 -1 0 0 Z " fill="#B8BAB8" transform="translate(346,413)"/>
<path d="M0 0 C3.33797211 1.4358461 5.35408904 3.22131811 7.8125 5.875 C11.29173259 9.46520248 14.54234293 11.77117147 19 14 C19 14.66 19 15.32 19 16 C20.65 16.33 22.3 16.66 24 17 C24 17.66 24 18.32 24 19 C20.26512223 18.5020163 18.18762365 18.12508244 15 16 C15.66 15.67 16.32 15.34 17 15 C16.15695313 14.62488281 15.31390625 14.24976563 14.4453125 13.86328125 C13.34960938 13.35152344 12.25390625 12.83976562 11.125 12.3125 C10.03445312 11.81363281 8.94390625 11.31476563 7.8203125 10.80078125 C4.60361853 8.74690879 4.05484591 7.57730351 3 4 C2.04175747 2.63634717 1.05278825 1.29205831 0 0 Z " fill="#3CA62A" transform="translate(224,339)"/>
<path d="M0 0 C5.24974243 0.53547373 9.28033157 3.21756791 13.75 5.8125 C19.70326417 9.24823975 25.66222258 12.32913331 32 15 C27.2979577 16.56409972 24.16302762 14.58746542 19.9375 12.5 C19.1854126 12.13704834 18.4333252 11.77409668 17.65844727 11.40014648 C11.51112514 8.37742282 5.5055814 5.10243107 0 1 C0 0.67 0 0.34 0 0 Z " fill="#246519" transform="translate(222,373)"/>
<path d="M0 0 C2.58525181 2.58525181 2.43719576 4.03351737 2.81640625 7.63671875 C2.94080078 8.77173828 3.06519531 9.90675781 3.19335938 11.07617188 C3.31517578 12.26791016 3.43699219 13.45964844 3.5625 14.6875 C3.81306468 17.02481875 4.06434686 19.36206072 4.31640625 21.69921875 C4.43258301 22.79411621 4.54875977 23.88901367 4.66845703 25.01708984 C5.03990368 28.35901561 5.48912732 31.67689485 6 35 C-0.50532204 25.24201693 -0.19038716 11.31745874 0 0 Z " fill="#A0E993" transform="translate(172,240)"/>
<path d="M0 0 C5.23136835 0.44522284 9.2460363 1.80930398 13.984375 4.0625 C16.12639962 5.10511017 16.12639962 5.10511017 19 6 C19 6.66 19 7.32 19 8 C11.50559651 7.5003731 5.04349737 5.56235522 -2 3 C-1.34 2.67 -0.68 2.34 0 2 C0 1.34 0 0.68 0 0 Z " fill="#318521" transform="translate(252,389)"/>
<path d="M0 0 C-3.2568198 1.83196114 -6.35193484 2.61498642 -10 3.375 C-17.88885323 5.12709029 -25.82266014 7.20023184 -33 11 C-33 10.01 -33 9.02 -33 8 C-29.96165799 6.8452141 -26.91880147 5.70280979 -23.875 4.5625 C-23.0190625 4.23701172 -22.163125 3.91152344 -21.28125 3.57617188 C-14.01170081 0.86407083 -7.7326354 -0.1333213 0 0 Z " fill="#1C5911" transform="translate(154,69)"/>
<path d="M0 0 C0.33 0 0.66 0 1 0 C1.05447822 2.52113092 1.09389852 5.0410585 1.125 7.5625 C1.14175781 8.26697266 1.15851563 8.97144531 1.17578125 9.69726562 C1.2199268 14.4870577 0.47612689 18.39795733 -1 23 C-1.39838846 24.80750322 -1.7763885 26.61974004 -2.125 28.4375 C-2.29257812 29.30246094 -2.46015625 30.16742188 -2.6328125 31.05859375 C-2.75398438 31.69925781 -2.87515625 32.33992188 -3 33 C-3.66 33 -4.32 33 -5 33 C-4.37732106 27.62939417 -3.54911583 22.3643858 -2.5 17.0625 C-1.40262164 11.38599496 -0.51430527 5.76021903 0 0 Z " fill="#3E7C33" transform="translate(452,246)"/>
<path d="M0 0 C3.63 0 7.26 0 11 0 C10.67 0.66 10.34 1.32 10 2 C6.46173745 3.17942085 3.65851274 3.11289189 -0.07421875 3.09765625 C-1.09996758 3.09553383 -1.09996758 3.09553383 -2.1464386 3.09336853 C-4.32683722 3.08777876 -6.50713251 3.07522822 -8.6875 3.0625 C-10.16731622 3.05748367 -11.64713406 3.052921 -13.12695312 3.04882812 C-16.75133557 3.03781271 -20.3756577 3.02055512 -24 3 C-24 2.67 -24 2.34 -24 2 C-16.08 1.67 -8.16 1.34 0 1 C0 0.67 0 0.34 0 0 Z " fill="#36572F" transform="translate(307,402)"/>
<path d="M0 0 C2.14315476 3.21473214 2.31651405 4.50263954 2.5625 8.25 C2.88176037 12.54291173 3.33851848 16.74761879 4 21 C4.66 21 5.32 21 6 21 C6.66 24.3 7.32 27.6 8 31 C7.67 30.34 7.34 29.68 7 29 C6.34 29 5.68 29 5 29 C4.34996375 26.79290017 3.70515255 24.58426108 3.0625 22.375 C2.70285156 21.14523437 2.34320313 19.91546875 1.97265625 18.6484375 C0.66923854 13.75931244 -0.13918748 9.18637363 -0.0625 4.125 C-0.05347656 3.34382813 -0.04445313 2.56265625 -0.03515625 1.7578125 C-0.02355469 1.17773438 -0.01195313 0.59765625 0 0 Z " fill="#2A7A1C" transform="translate(111,264)"/>
<path d="M0 0 C0.66 0.33 1.32 0.66 2 1 C-3.61 6.61 -9.22 12.22 -15 18 C-15.33 17.01 -15.66 16.02 -16 15 C-13.89888324 12.87190742 -11.79429065 10.74746285 -9.6875 8.625 C-9.09259766 8.02171875 -8.49769531 7.4184375 -7.88476562 6.796875 C-7.30791016 6.21679688 -6.73105469 5.63671875 -6.13671875 5.0390625 C-5.60780029 4.50490723 -5.07888184 3.97075195 -4.53393555 3.42041016 C-3 2 -3 2 0 0 Z " fill="#88D979" transform="translate(170,92)"/>
<path d="M0 0 C12.87 0 25.74 0 39 0 C39 0.33 39 0.66 39 1 C23.16 1.495 23.16 1.495 7 2 C7 2.33 7 2.66 7 3 C4.69 3 2.38 3 0 3 C0 2.01 0 1.02 0 0 Z " fill="#0D2808" transform="translate(287,62)"/>
<path d="M0 0 C0.66 0.33 1.32 0.66 2 1 C-2.42895625 4.94710221 -6.86183529 8.88988026 -11.3125 12.8125 C-12.23482422 13.62654297 -12.23482422 13.62654297 -13.17578125 14.45703125 C-15.06280334 16.0531206 -17.00901963 17.53643165 -19 19 C-19.66 18.67 -20.32 18.34 -21 18 C-7.55125285 5.33029613 -7.55125285 5.33029613 0 0 Z " fill="#2E8F1E" transform="translate(219,98)"/>
<path d="M0 0 C11.55 0 23.1 0 35 0 C35.495 0.99 35.495 0.99 36 2 C34.35 2.33 32.7 2.66 31 3 C31 2.34 31 1.68 31 1 C30.27039063 1.08378906 29.54078125 1.16757812 28.7890625 1.25390625 C19.09094375 2.19977215 9.69818244 1.70749928 0 1 C0 0.67 0 0.34 0 0 Z " fill="#DBDCDB" transform="translate(288,417)"/>
<path d="M0 0 C6.97986313 0.31021614 12.07291522 3.4951958 18 7 C18 7.33 18 7.66 18 8 C11.02013687 7.68978386 5.92708478 4.5048042 0 1 C0 0.67 0 0.34 0 0 Z " fill="#A7BCA4" transform="translate(224,347)"/>
<path d="M0 0 C-1.58667578 3.90285767 -4.13350481 6.33520982 -7.125 9.25 C-8.03507813 10.14203125 -8.94515625 11.0340625 -9.8828125 11.953125 C-10.58148438 12.62859375 -11.28015625 13.3040625 -12 14 C-12.66 13.67 -13.32 13.34 -14 13 C-2.80645161 0 -2.80645161 0 0 0 Z " fill="#21361D" transform="translate(191,96)"/>
<path d="M0 0 C-7.32650983 1.05987432 -14.64971227 2.11796547 -22 3 C-19.53031367 0.53031367 -17.42511413 -0.06997969 -14.125 -1.1875 C-13.07570313 -1.55230469 -12.02640625 -1.91710938 -10.9453125 -2.29296875 C-6.45986861 -3.36971324 -3.9598342 -2.12133975 0 0 Z " fill="#C0C1C0" transform="translate(282,51)"/>
<path d="M0 0 C2.17260367 3.2589055 3.35021087 6.32149695 4.6875 10 C5.14511719 11.2375 5.60273437 12.475 6.07421875 13.75 C7 17 7 17 6 20 C3.90250005 17.64031256 3.03094296 16.45383006 2.8125 13.25 C2.9053125 12.13625 2.9053125 12.13625 3 11 C2.34 11 1.68 11 1 11 C0.67 7.37 0.34 3.74 0 0 Z " fill="#328C23" transform="translate(99,291)"/>
<path d="M0 0 C8.25 0 16.5 0 25 0 C25 0.33 25 0.66 25 1 C17.74 1 10.48 1 3 1 C3 2.65 3 4.3 3 6 C1.5 4.6875 1.5 4.6875 0 3 C0 2.01 0 1.02 0 0 Z " fill="#497242" transform="translate(259,195)"/>
<path d="M0 0 C6.27 0 12.54 0 19 0 C19 0.33 19 0.66 19 1 C17.35 1 15.7 1 14 1 C14 1.66 14 2.32 14 3 C12.04098546 2.88617347 10.0827662 2.75858875 8.125 2.625 C7.03445313 2.55539063 5.94390625 2.48578125 4.8203125 2.4140625 C2 2 2 2 0 0 Z " fill="#257617" transform="translate(310,64)"/>
<path d="M0 0 C4.455 0.99 4.455 0.99 9 2 C9 2.66 9 3.32 9 4 C11.31 4.66 13.62 5.32 16 6 C13.42531501 7.2873425 11.86495681 7.26349238 9 7 C6.54296875 5.72265625 6.54296875 5.72265625 4.1875 4.0625 C3.39730469 3.51722656 2.60710937 2.97195312 1.79296875 2.41015625 C1.20128906 1.94480469 0.60960937 1.47945313 0 1 C0 0.67 0 0.34 0 0 Z " fill="#AEC7A9" transform="translate(365,113)"/>
<path d="M0 0 C2 2 2 2 3 8 C8.28 8 13.56 8 19 8 C19 8.33 19 8.66 19 9 C13.06 9 7.12 9 1 9 C-0.4783226 6.04335481 -0.06032783 3.25770263 0 0 Z " fill="#2D8F1C" transform="translate(492,194)"/>
<path d="M0 0 C-3.40219265 2.74792483 -7.48464588 6 -12 6 C-11.1875 3.5625 -11.1875 3.5625 -10 1 C-6.52674819 -0.1577506 -3.63932552 -0.06866652 0 0 Z " fill="#83CC75" transform="translate(231,67)"/>
<path d="M0 0 C4.06225548 0.57823096 6.84762346 1.89117737 10.3125 4.0625 C11.19550781 4.61035156 12.07851562 5.15820312 12.98828125 5.72265625 C13.65214844 6.14417969 14.31601563 6.56570313 15 7 C13.359375 7.7109375 13.359375 7.7109375 11 8 C8.203125 6.6015625 8.203125 6.6015625 5.25 4.625 C4.26515625 3.97789062 3.2803125 3.33078125 2.265625 2.6640625 C1.51796875 2.11492187 0.7703125 1.56578125 0 1 C0 0.67 0 0.34 0 0 Z " fill="#205516" transform="translate(222,373)"/>
<path d="M0 0 C0.33 1.32 0.66 2.64 1 4 C-1.25574555 7.38361833 -5.48793918 9.18125422 -9 11 C-9.99 11 -10.98 11 -12 11 C-8.04 7.37 -4.08 3.74 0 0 Z " fill="#4CBD39" transform="translate(385,363)"/>
<path d="M0 0 C1.12018319 3.36054957 0.90181274 4.01723271 -0.21484375 7.23046875 C-0.48876953 8.03291016 -0.76269531 8.83535156 -1.04492188 9.66210938 C-1.48674805 10.91217773 -1.48674805 10.91217773 -1.9375 12.1875 C-2.22818359 13.03248047 -2.51886719 13.87746094 -2.81835938 14.74804688 C-3.53757537 16.83495229 -4.2650343 18.91859994 -5 21 C-6.41264943 16.10923643 -6.03532323 11.89059025 -3.5625 7.375 C-3.046875 6.59125 -2.53125 5.8075 -2 5 C-1.30177383 3.34630643 -0.62501395 1.68272986 0 0 Z " fill="#44A234" transform="translate(163,170)"/>
<path d="M0 0 C2.30259931 2.85839915 3.86268345 5.60418038 5.25 9 C5.60578125 9.845625 5.9615625 10.69125 6.328125 11.5625 C7.05204912 14.18882935 6.9128421 15.47212957 6 18 C4.98819502 15.94326547 3.99098523 13.87934652 3 11.8125 C2.443125 10.66394531 1.88625 9.51539063 1.3125 8.33203125 C0.08236325 5.20909481 -0.29804612 3.29713518 0 0 Z " fill="#3D9E2C" transform="translate(479,152)"/>
<path d="M0 0 C-0.66 1.32 -1.32 2.64 -2 4 C-2 3.34 -2 2.68 -2 2 C-3.299375 2.928125 -3.299375 2.928125 -4.625 3.875 C-7.75628186 5.84654784 -10.46384469 6.98966991 -14 8 C-9.99534768 3.641996 -6.17328196 0 0 0 Z " fill="#478E3B" transform="translate(235,90)"/>
<path d="M0 0 C-1.32 0.33 -2.64 0.66 -4 1 C-4 1.66 -4 2.32 -4 3 C-6.31 3.33 -8.62 3.66 -11 4 C-11.66 3.01 -12.32 2.02 -13 1 C-11.39796533 0.63631108 -9.79325797 0.28438048 -8.1875 -0.0625 C-7.29417969 -0.25972656 -6.40085937 -0.45695312 -5.48046875 -0.66015625 C-3 -1 -3 -1 0 0 Z " fill="#828582" transform="translate(346,413)"/>
<path d="M0 0 C3.95820859 0.56545837 6.6659053 1.80902348 10 4 C8.02 4.99 8.02 4.99 6 6 C3.96166576 4.7260411 1.96147874 3.38938077 0 2 C0 1.34 0 0.68 0 0 Z " fill="#D9E9D7" transform="translate(376,119)"/>
<path d="M0 0 C0.99 0.33 1.98 0.66 3 1 C0.69 3.31 -1.62 5.62 -4 8 C-4.33 7.01 -4.66 6.02 -5 5 C-3.35 3.35 -1.7 1.7 0 0 Z " fill="#38A426" transform="translate(197,117)"/>
<path d="M0 0 C3.26008643 3.16952847 6.22237877 6.39937989 9 10 C8.67 10.66 8.34 11.32 8 12 C1.48063781 4.88610478 1.48063781 4.88610478 0 0 Z " fill="#58AC49" transform="translate(135,332)"/>
<path d="M0 0 C2 0.6875 2 0.6875 4 2.6875 C-0.455 3.1825 -0.455 3.1825 -5 3.6875 C-4.67 2.6975 -4.34 1.7075 -4 0.6875 C-2 -0.3125 -2 -0.3125 0 0 Z " fill="#236E15" transform="translate(382,395.3125)"/>
<path d="M0 0 C0.99 0.33 1.98 0.66 3 1 C3 1.66 3 2.32 3 3 C4.65 3.33 6.3 3.66 8 4 C8 4.66 8 5.32 8 6 C4.26512223 5.5020163 2.18762365 5.12508244 -1 3 C-0.34 2.67 0.32 2.34 1 2 C0.67 1.34 0.34 0.68 0 0 Z " fill="#43673D" transform="translate(240,352)"/>
<path d="M0 0 C0.66 0 1.32 0 2 0 C2 0.66 2 1.32 2 2 C2.99 2.33 3.98 2.66 5 3 C4.67 3.66 4.34 4.32 4 5 C3.34 4.67 2.68 4.34 2 4 C2 4.99 2 5.98 2 7 C1.34 7 0.68 7 0 7 C0 4.69 0 2.38 0 0 Z " fill="#A7C2A3" transform="translate(389,280)"/>
<path d="M0 0 C2.0343459 1.41519715 2.90410393 2.54982123 3.421875 4.98046875 C3.66273952 6.98176954 3.83532741 8.9909944 4 11 C1.9656541 9.58480285 1.09589607 8.45017877 0.578125 6.01953125 C0.33726048 4.01823046 0.16467259 2.0090056 0 0 Z " fill="#48843D" transform="translate(293,218)"/>
<path d="M0 0 C3.82097239 0.53069061 6.06171403 1.49701566 9 4 C6 5 6 5 2.8125 3.5625 C1.884375 3.046875 0.95625 2.53125 0 2 C0 1.34 0 0.68 0 0 Z " fill="#5B8055" transform="translate(357,109)"/>
<path d="M0 0 C2.64 0 5.28 0 8 0 C7.67 0.99 7.34 1.98 7 3 C4.69 3 2.38 3 0 3 C0 2.01 0 1.02 0 0 Z " fill="#091D06" transform="translate(287,62)"/>
<path d="M0 0 C3.34373475 0.55728913 6.03312999 1.35173889 9 3 C9 3.66 9 4.32 9 5 C5.22454612 3.90931332 2.52956528 3.0916909 0 0 Z " fill="#54BC42" transform="translate(231,348)"/>
<path d="M0 0 C3.59391114 1.33488128 6.75490696 2.96022723 10 5 C8 6 8 6 5.5625 5.3125 C2.78856329 3.89170315 1.64827439 2.60253852 0 0 Z " fill="#45AD33" transform="translate(364,114)"/>
<path d="M0 0 C0.99 0.33 1.98 0.66 3 1 C1.1875 3 1.1875 3 -1 5 C-1.99 5 -2.98 5 -4 5 C-2.25 1.125 -2.25 1.125 0 0 Z " fill="#54C840" transform="translate(223,97)"/>
<path d="M0 0 C0.66 0.33 1.32 0.66 2 1 C0.35 2.65 -1.3 4.3 -3 6 C-3.33 4.68 -3.66 3.36 -4 2 C-2.125 0.9375 -2.125 0.9375 0 0 Z " fill="#B4C8B1" transform="translate(374,371)"/>
</svg>
